<svg width="41" height="41" viewBox="0 0 41 41" fill="none" xmlns="http://www.w3.org/2000/svg">
<path d="M28.8333 3.83337H12.1666C7.56421 3.83337 3.83325 7.56433 3.83325 12.1667V28.8334C3.83325 33.4357 7.56421 37.1667 12.1666 37.1667H28.8333C33.4356 37.1667 37.1666 33.4357 37.1666 28.8334V12.1667C37.1666 7.56433 33.4356 3.83337 28.8333 3.83337Z" stroke="white" stroke-width="3.33333" stroke-linecap="round" stroke-linejoin="round"/>
<path d="M27.1667 19.4501C27.3724 20.8372 27.1355 22.2538 26.4897 23.4985C25.8438 24.7432 24.822 25.7525 23.5695 26.3829C22.3169 27.0134 20.8975 27.2328 19.5131 27.01C18.1286 26.7872 16.8497 26.1336 15.8581 25.1421C14.8666 24.1505 14.213 22.8716 13.9902 21.4872C13.7674 20.1027 13.9869 18.6833 14.6173 17.4308C15.2477 16.1782 16.2571 15.1564 17.5017 14.5105C18.7464 13.8647 20.163 13.6278 21.5501 13.8335C22.965 14.0433 24.2748 14.7026 25.2862 15.714C26.2976 16.7254 26.9569 18.0353 27.1667 19.4501Z" stroke="white" stroke-width="3.33333" stroke-linecap="round" stroke-linejoin="round"/>
<path d="M29.6667 11.3334H29.6834" stroke="white" stroke-width="3.33333" stroke-linecap="round" stroke-linejoin="round"/>
</svg>
