<svg width="41" height="41" viewBox="0 0 41 41" fill="none" xmlns="http://www.w3.org/2000/svg">
<path d="M27.1667 13.8333C29.8189 13.8333 32.3625 14.8869 34.2378 16.7622C36.1132 18.6376 37.1667 21.1811 37.1667 23.8333V35.5H30.5001V23.8333C30.5001 22.9493 30.1489 22.1014 29.5238 21.4763C28.8986 20.8512 28.0508 20.5 27.1667 20.5C26.2827 20.5 25.4348 20.8512 24.8097 21.4763C24.1846 22.1014 23.8334 22.9493 23.8334 23.8333V35.5H17.1667V23.8333C17.1667 21.1811 18.2203 18.6376 20.0957 16.7622C21.971 14.8869 24.5146 13.8333 27.1667 13.8333Z" stroke="white" stroke-width="3.33333" stroke-linecap="round" stroke-linejoin="round"/>
<path d="M10.4999 15.5H3.83325V35.5H10.4999V15.5Z" stroke="white" stroke-width="3.33333" stroke-linecap="round" stroke-linejoin="round"/>
<path d="M7.16659 10.5C9.00753 10.5 10.4999 9.0076 10.4999 7.16665C10.4999 5.3257 9.00753 3.83331 7.16659 3.83331C5.32564 3.83331 3.83325 5.3257 3.83325 7.16665C3.83325 9.0076 5.32564 10.5 7.16659 10.5Z" stroke="white" stroke-width="3.33333" stroke-linecap="round" stroke-linejoin="round"/>
</svg>
