<svg width="171" height="198" viewBox="0 0 171 198" fill="none" xmlns="http://www.w3.org/2000/svg">
<path d="M19.5222 194.25C18.9329 194.25 18.3707 194.145 17.8358 193.937C17.3099 193.719 16.843 193.415 16.435 193.026C16.027 192.627 15.7051 192.146 15.4694 191.584C15.2427 191.022 15.1294 190.396 15.1294 189.707C15.1294 189.018 15.2427 188.397 15.4694 187.844C15.7051 187.291 16.027 186.819 16.435 186.43C16.843 186.04 17.3099 185.741 17.8358 185.532C18.3707 185.323 18.9329 185.219 19.5222 185.219C20.1115 185.219 20.6691 185.323 21.195 185.532C21.7299 185.741 22.2014 186.04 22.6094 186.43C23.0174 186.819 23.3347 187.291 23.5614 187.844C23.7971 188.397 23.915 189.018 23.915 189.707C23.915 190.396 23.7971 191.022 23.5614 191.584C23.3347 192.146 23.0174 192.627 22.6094 193.026C22.2014 193.415 21.7299 193.719 21.195 193.937C20.6691 194.145 20.1115 194.25 19.5222 194.25ZM19.5222 193.678C20.2113 193.678 20.8369 193.515 21.399 193.189C21.9702 192.853 22.4235 192.386 22.759 191.788C23.1035 191.19 23.2758 190.496 23.2758 189.707C23.2758 188.918 23.1035 188.229 22.759 187.64C22.4235 187.051 21.9702 186.593 21.399 186.266C20.8369 185.94 20.2113 185.777 19.5222 185.777C18.8422 185.777 18.2166 185.94 17.6454 186.266C17.0742 186.593 16.6163 187.051 16.2718 187.64C15.9363 188.229 15.7686 188.918 15.7686 189.707C15.7686 190.496 15.9363 191.19 16.2718 191.788C16.6163 192.386 17.0742 192.853 17.6454 193.189C18.2166 193.515 18.8422 193.678 19.5222 193.678ZM19.631 192.4C19.1777 192.4 18.7606 192.296 18.3798 192.087C18.0081 191.87 17.7089 191.561 17.4822 191.162C17.2646 190.754 17.1558 190.269 17.1558 189.707C17.1558 189.181 17.2737 188.728 17.5094 188.347C17.7451 187.957 18.0534 187.658 18.4342 187.45C18.8241 187.241 19.2366 187.137 19.6718 187.137C20.0526 187.137 20.3745 187.214 20.6374 187.368C20.9094 187.513 21.1542 187.694 21.3718 187.912L20.8958 188.442C20.7145 188.261 20.5286 188.125 20.3382 188.034C20.1569 187.935 19.9483 187.885 19.7126 187.885C19.2139 187.885 18.8105 188.057 18.5022 188.402C18.203 188.737 18.0534 189.172 18.0534 189.707C18.0534 190.306 18.1985 190.782 18.4886 191.135C18.7878 191.48 19.1822 191.652 19.6718 191.652C19.9619 191.652 20.2158 191.598 20.4334 191.489C20.651 191.371 20.8595 191.226 21.059 191.054L21.467 191.625C21.2131 191.842 20.9457 192.028 20.6646 192.182C20.3835 192.327 20.039 192.4 19.631 192.4ZM27.85 194.1V193.434C28.7204 192.563 29.4593 191.802 30.0668 191.149C30.6742 190.487 31.1366 189.893 31.454 189.367C31.7713 188.832 31.93 188.334 31.93 187.871C31.93 187.373 31.794 186.965 31.522 186.647C31.25 186.33 30.8374 186.171 30.2844 186.171C29.9217 186.171 29.5862 186.275 29.278 186.484C28.9697 186.683 28.6886 186.928 28.4348 187.218L27.7956 186.579C28.1582 186.18 28.5436 185.863 28.9516 185.627C29.3686 185.382 29.8582 185.26 30.4204 185.26C31.2273 185.26 31.862 185.496 32.3244 185.967C32.7868 186.43 33.018 187.046 33.018 187.817C33.018 188.361 32.8638 188.914 32.5556 189.476C32.2564 190.029 31.8393 190.614 31.3044 191.23C30.7785 191.838 30.171 192.5 29.482 193.216C29.7177 193.198 29.9625 193.18 30.2164 193.162C30.4702 193.143 30.7105 193.134 30.9372 193.134H33.4532V194.1H27.85ZM37.4525 194.263C36.5821 194.263 35.8976 193.873 35.3989 193.094C34.9093 192.305 34.6645 191.185 34.6645 189.734C34.6645 188.275 34.9093 187.164 35.3989 186.402C35.8976 185.641 36.5821 185.26 37.4525 185.26C38.3138 185.26 38.9893 185.641 39.4789 186.402C39.9776 187.164 40.2269 188.275 40.2269 189.734C40.2269 191.185 39.9776 192.305 39.4789 193.094C38.9893 193.873 38.3138 194.263 37.4525 194.263ZM37.4525 193.366C37.9602 193.366 38.3682 193.08 38.6765 192.509C38.9848 191.929 39.1389 191.004 39.1389 189.734C39.1389 188.465 38.9848 187.554 38.6765 187.001C38.3682 186.439 37.9602 186.158 37.4525 186.158C36.9448 186.158 36.5322 186.439 36.2149 187.001C35.9066 187.554 35.7525 188.465 35.7525 189.734C35.7525 191.004 35.9066 191.929 36.2149 192.509C36.5322 193.08 36.9448 193.366 37.4525 193.366ZM41.3703 194.1V193.434C42.2407 192.563 42.9796 191.802 43.5871 191.149C44.1945 190.487 44.6569 189.893 44.9743 189.367C45.2916 188.832 45.4503 188.334 45.4503 187.871C45.4503 187.373 45.3143 186.965 45.0423 186.647C44.7703 186.33 44.3577 186.171 43.8047 186.171C43.442 186.171 43.1065 186.275 42.7983 186.484C42.49 186.683 42.2089 186.928 41.9551 187.218L41.3159 186.579C41.6785 186.18 42.0639 185.863 42.4719 185.627C42.8889 185.382 43.3785 185.26 43.9407 185.26C44.7476 185.26 45.3823 185.496 45.8447 185.967C46.3071 186.43 46.5383 187.046 46.5383 187.817C46.5383 188.361 46.3841 188.914 46.0759 189.476C45.7767 190.029 45.3596 190.614 44.8247 191.23C44.2988 191.838 43.6913 192.5 43.0023 193.216C43.238 193.198 43.4828 193.18 43.7367 193.162C43.9905 193.143 44.2308 193.134 44.4575 193.134H46.9735V194.1H41.3703ZM49.0008 190.809H51.7208V188.293C51.7208 188.057 51.7299 187.776 51.748 187.45C51.7662 187.123 51.7798 186.847 51.7888 186.62H51.7344C51.6256 186.829 51.5123 187.033 51.3944 187.232C51.2766 187.431 51.1542 187.635 51.0272 187.844L49.0008 190.809ZM51.7208 194.1V191.706H47.8176V190.972L51.5304 185.423H52.7816V190.809H53.9648V191.706H52.7816V194.1H51.7208ZM59.83 189.109L59.4084 190.469H62.0876L61.666 189.109C61.5028 188.61 61.3487 188.116 61.2036 187.626C61.0586 187.128 60.9135 186.62 60.7684 186.103H60.714C60.578 186.62 60.4375 187.128 60.2924 187.626C60.1474 188.116 59.9932 188.61 59.83 189.109ZM57.11 194.1L60.1292 185.178H61.4076L64.4268 194.1H63.2164L62.3732 191.38H59.1228L58.266 194.1H57.11ZM66.7653 194.263C66.3482 194.263 66.0445 194.136 65.8541 193.882C65.6728 193.619 65.5821 193.248 65.5821 192.767V184.417H66.6973V192.849C66.6973 193.021 66.729 193.148 66.7925 193.23C66.856 193.302 66.9285 193.338 67.0101 193.338C67.0464 193.338 67.0781 193.338 67.1053 193.338C67.1416 193.329 67.1914 193.32 67.2549 193.311L67.4045 194.154C67.332 194.191 67.2458 194.218 67.1461 194.236C67.0464 194.254 66.9194 194.263 66.7653 194.263ZM70.2317 194.263C69.8146 194.263 69.5109 194.136 69.3205 193.882C69.1392 193.619 69.0485 193.248 69.0485 192.767V184.417H70.1637V192.849C70.1637 193.021 70.1954 193.148 70.2589 193.23C70.3224 193.302 70.3949 193.338 70.4765 193.338C70.5128 193.338 70.5445 193.338 70.5717 193.338C70.608 193.329 70.6578 193.32 70.7213 193.311L70.8709 194.154C70.7984 194.191 70.7122 194.218 70.6125 194.236C70.5128 194.254 70.3858 194.263 70.2317 194.263ZM75.2376 194.1V187.49H76.1624L76.2576 188.687H76.2984C76.525 188.27 76.8016 187.939 77.128 187.694C77.4544 187.45 77.8034 187.327 78.1752 187.327C78.4381 187.327 78.6738 187.373 78.8824 187.463L78.6648 188.442C78.556 188.406 78.4562 188.379 78.3656 188.361C78.2749 188.343 78.1616 188.334 78.0256 188.334C77.7445 188.334 77.4498 188.447 77.1416 188.674C76.8424 188.9 76.5794 189.295 76.3528 189.857V194.1H75.2376ZM79.9524 194.1V187.49H81.0676V194.1H79.9524ZM80.5236 186.13C80.306 186.13 80.1247 186.067 79.9796 185.94C79.8436 185.804 79.7756 185.623 79.7756 185.396C79.7756 185.178 79.8436 185.002 79.9796 184.866C80.1247 184.73 80.306 184.662 80.5236 184.662C80.7412 184.662 80.918 184.73 81.054 184.866C81.1991 185.002 81.2716 185.178 81.2716 185.396C81.2716 185.623 81.1991 185.804 81.054 185.94C80.918 186.067 80.7412 186.13 80.5236 186.13ZM85.5297 197.146C84.7227 197.146 84.0654 196.992 83.5577 196.684C83.0499 196.376 82.7961 195.936 82.7961 195.365C82.7961 195.084 82.8822 194.812 83.0545 194.549C83.2267 194.295 83.4625 194.068 83.7617 193.869V193.814C83.5985 193.715 83.4579 193.574 83.3401 193.393C83.2313 193.211 83.1769 192.994 83.1769 192.74C83.1769 192.459 83.2539 192.214 83.4081 192.006C83.5622 191.797 83.7254 191.634 83.8977 191.516V191.462C83.6801 191.28 83.4806 191.035 83.2993 190.727C83.127 190.419 83.0409 190.07 83.0409 189.68C83.0409 189.199 83.1542 188.782 83.3809 188.429C83.6075 188.075 83.9113 187.803 84.2921 187.613C84.6729 187.422 85.0854 187.327 85.5297 187.327C85.711 187.327 85.8833 187.345 86.0465 187.382C86.2097 187.409 86.3502 187.445 86.4681 187.49H88.7665V188.347H87.4065C87.5606 188.492 87.6875 188.687 87.7873 188.932C87.8961 189.168 87.9505 189.426 87.9505 189.707C87.9505 190.179 87.8417 190.587 87.6241 190.931C87.4065 191.276 87.1163 191.543 86.7537 191.734C86.391 191.915 85.983 192.006 85.5297 192.006C85.1761 192.006 84.8451 191.929 84.5369 191.774C84.419 191.874 84.3193 191.987 84.2377 192.114C84.1561 192.232 84.1153 192.382 84.1153 192.563C84.1153 192.772 84.1969 192.944 84.3601 193.08C84.5323 193.216 84.8406 193.284 85.2849 193.284H86.5633C87.3339 193.284 87.9097 193.411 88.2905 193.665C88.6803 193.91 88.8753 194.309 88.8753 194.862C88.8753 195.27 88.7393 195.646 88.4673 195.99C88.1953 196.335 87.8099 196.611 87.3113 196.82C86.8126 197.038 86.2187 197.146 85.5297 197.146ZM85.5297 191.258C85.9105 191.258 86.2369 191.117 86.5089 190.836C86.7899 190.546 86.9305 190.161 86.9305 189.68C86.9305 189.199 86.7945 188.823 86.5225 188.551C86.2505 188.279 85.9195 188.143 85.5297 188.143C85.1398 188.143 84.8089 188.279 84.5369 188.551C84.2649 188.823 84.1289 189.199 84.1289 189.68C84.1289 190.161 84.2649 190.546 84.5369 190.836C84.8179 191.117 85.1489 191.258 85.5297 191.258ZM85.6929 196.371C86.3275 196.371 86.8353 196.231 87.2161 195.95C87.5969 195.678 87.7873 195.369 87.7873 195.025C87.7873 194.717 87.6694 194.503 87.4337 194.386C87.207 194.268 86.8806 194.209 86.4545 194.209H85.3121C85.1851 194.209 85.0446 194.2 84.8905 194.182C84.7454 194.163 84.6003 194.136 84.4553 194.1C84.2195 194.272 84.0473 194.454 83.9385 194.644C83.8297 194.834 83.7753 195.025 83.7753 195.215C83.7753 195.569 83.943 195.85 84.2785 196.058C84.623 196.267 85.0945 196.371 85.6929 196.371ZM90.1524 194.1V184.417H91.2676V187.055L91.2268 188.415C91.5441 188.116 91.8751 187.862 92.2196 187.654C92.5732 187.436 92.9767 187.327 93.43 187.327C94.1281 187.327 94.6359 187.549 94.9532 187.994C95.2796 188.429 95.4428 189.068 95.4428 189.911V194.1H94.3276V190.061C94.3276 189.444 94.2279 188.995 94.0284 188.714C93.8289 188.433 93.5116 188.293 93.0764 188.293C92.7409 188.293 92.4372 188.379 92.1652 188.551C91.9023 188.723 91.6031 188.977 91.2676 189.313V194.1H90.1524ZM99.6309 194.263C98.9237 194.263 98.4295 194.059 98.1485 193.651C97.8765 193.243 97.7405 192.713 97.7405 192.06V188.402H96.7613V187.558L97.7949 187.49L97.9309 185.641H98.8693V187.49H100.651V188.402H98.8693V192.074C98.8693 192.482 98.9418 192.799 99.0869 193.026C99.241 193.243 99.5085 193.352 99.8893 193.352C100.007 193.352 100.134 193.334 100.27 193.298C100.406 193.252 100.528 193.211 100.637 193.175L100.855 194.018C100.674 194.082 100.474 194.136 100.256 194.182C100.048 194.236 99.8394 194.263 99.6309 194.263ZM103.74 194.263C103.268 194.263 102.819 194.177 102.393 194.005C101.967 193.823 101.595 193.606 101.278 193.352L101.836 192.604C102.126 192.831 102.425 193.021 102.733 193.175C103.042 193.32 103.391 193.393 103.781 193.393C104.216 193.393 104.542 193.293 104.76 193.094C104.977 192.885 105.086 192.64 105.086 192.359C105.086 192.133 105.009 191.942 104.855 191.788C104.71 191.634 104.519 191.507 104.284 191.407C104.057 191.298 103.821 191.199 103.577 191.108C103.268 190.99 102.965 190.859 102.665 190.714C102.366 190.559 102.121 190.365 101.931 190.129C101.741 189.884 101.645 189.576 101.645 189.204C101.645 188.669 101.845 188.225 102.244 187.871C102.652 187.509 103.214 187.327 103.93 187.327C104.338 187.327 104.719 187.4 105.073 187.545C105.426 187.69 105.73 187.867 105.984 188.075L105.44 188.782C105.213 188.61 104.977 188.47 104.733 188.361C104.488 188.252 104.22 188.198 103.93 188.198C103.513 188.198 103.205 188.293 103.005 188.483C102.815 188.674 102.72 188.896 102.72 189.15C102.72 189.358 102.788 189.53 102.924 189.666C103.06 189.793 103.237 189.907 103.454 190.006C103.672 190.097 103.903 190.192 104.148 190.292C104.465 190.41 104.778 190.546 105.086 190.7C105.394 190.845 105.648 191.045 105.848 191.298C106.056 191.543 106.161 191.874 106.161 192.291C106.161 192.645 106.065 192.971 105.875 193.27C105.694 193.57 105.422 193.81 105.059 193.991C104.705 194.173 104.266 194.263 103.74 194.263ZM110.433 194.1V187.49H111.358L111.453 188.687H111.494C111.72 188.27 111.997 187.939 112.323 187.694C112.65 187.45 112.999 187.327 113.37 187.327C113.633 187.327 113.869 187.373 114.078 187.463L113.86 188.442C113.751 188.406 113.652 188.379 113.561 188.361C113.47 188.343 113.357 188.334 113.221 188.334C112.94 188.334 112.645 188.447 112.337 188.674C112.038 188.9 111.775 189.295 111.548 189.857V194.1H110.433ZM117.694 194.263C117.105 194.263 116.57 194.127 116.089 193.855C115.609 193.574 115.228 193.175 114.947 192.658C114.666 192.142 114.525 191.525 114.525 190.809C114.525 190.083 114.666 189.462 114.947 188.946C115.237 188.429 115.609 188.03 116.062 187.749C116.515 187.468 116.991 187.327 117.49 187.327C118.333 187.327 118.982 187.608 119.435 188.17C119.897 188.733 120.129 189.485 120.129 190.428C120.129 190.546 120.124 190.664 120.115 190.782C120.115 190.89 120.106 190.986 120.088 191.067H115.627C115.672 191.765 115.89 192.323 116.28 192.74C116.679 193.157 117.195 193.366 117.83 193.366C118.147 193.366 118.438 193.32 118.701 193.23C118.973 193.13 119.231 193.003 119.476 192.849L119.87 193.583C119.589 193.765 119.267 193.923 118.905 194.059C118.551 194.195 118.147 194.263 117.694 194.263ZM115.613 190.265H119.149C119.149 189.594 119.004 189.086 118.714 188.742C118.433 188.388 118.034 188.211 117.517 188.211C117.055 188.211 116.638 188.393 116.266 188.755C115.903 189.109 115.686 189.612 115.613 190.265ZM123.489 194.263C123.018 194.263 122.569 194.177 122.143 194.005C121.716 193.823 121.345 193.606 121.027 193.352L121.585 192.604C121.875 192.831 122.174 193.021 122.483 193.175C122.791 193.32 123.14 193.393 123.53 193.393C123.965 193.393 124.291 193.293 124.509 193.094C124.727 192.885 124.835 192.64 124.835 192.359C124.835 192.133 124.758 191.942 124.604 191.788C124.459 191.634 124.269 191.507 124.033 191.407C123.806 191.298 123.571 191.199 123.326 191.108C123.018 190.99 122.714 190.859 122.415 190.714C122.115 190.559 121.871 190.365 121.68 190.129C121.49 189.884 121.395 189.576 121.395 189.204C121.395 188.669 121.594 188.225 121.993 187.871C122.401 187.509 122.963 187.327 123.679 187.327C124.087 187.327 124.468 187.4 124.822 187.545C125.175 187.69 125.479 187.867 125.733 188.075L125.189 188.782C124.962 188.61 124.727 188.47 124.482 188.361C124.237 188.252 123.97 188.198 123.679 188.198C123.262 188.198 122.954 188.293 122.755 188.483C122.564 188.674 122.469 188.896 122.469 189.15C122.469 189.358 122.537 189.53 122.673 189.666C122.809 189.793 122.986 189.907 123.203 190.006C123.421 190.097 123.652 190.192 123.897 190.292C124.214 190.41 124.527 190.546 124.835 190.7C125.144 190.845 125.398 191.045 125.597 191.298C125.806 191.543 125.91 191.874 125.91 192.291C125.91 192.645 125.815 192.971 125.624 193.27C125.443 193.57 125.171 193.81 124.808 193.991C124.455 194.173 124.015 194.263 123.489 194.263ZM130.139 194.263C129.549 194.263 129.014 194.127 128.534 193.855C128.053 193.574 127.673 193.175 127.391 192.658C127.11 192.142 126.97 191.525 126.97 190.809C126.97 190.083 127.11 189.462 127.391 188.946C127.682 188.429 128.053 188.03 128.507 187.749C128.96 187.468 129.436 187.327 129.935 187.327C130.778 187.327 131.426 187.608 131.879 188.17C132.342 188.733 132.573 189.485 132.573 190.428C132.573 190.546 132.569 190.664 132.559 190.782C132.559 190.89 132.55 190.986 132.532 191.067H128.071C128.117 191.765 128.334 192.323 128.724 192.74C129.123 193.157 129.64 193.366 130.275 193.366C130.592 193.366 130.882 193.32 131.145 193.23C131.417 193.13 131.675 193.003 131.92 192.849L132.315 193.583C132.034 193.765 131.712 193.923 131.349 194.059C130.995 194.195 130.592 194.263 130.139 194.263ZM128.058 190.265H131.594C131.594 189.594 131.449 189.086 131.159 188.742C130.878 188.388 130.479 188.211 129.962 188.211C129.499 188.211 129.082 188.393 128.711 188.755C128.348 189.109 128.13 189.612 128.058 190.265ZM134.206 194.1V187.49H135.131L135.226 188.687H135.267C135.494 188.27 135.77 187.939 136.097 187.694C136.423 187.45 136.772 187.327 137.144 187.327C137.407 187.327 137.643 187.373 137.851 187.463L137.634 188.442C137.525 188.406 137.425 188.379 137.334 188.361C137.244 188.343 137.13 188.334 136.994 188.334C136.713 188.334 136.419 188.447 136.11 188.674C135.811 188.9 135.548 189.295 135.322 189.857V194.1H134.206ZM140.694 194.1L138.314 187.49H139.47L140.722 191.244C140.821 191.57 140.921 191.897 141.021 192.223C141.13 192.55 141.234 192.871 141.334 193.189H141.388C141.488 192.871 141.588 192.55 141.687 192.223C141.796 191.897 141.896 191.57 141.986 191.244L143.238 187.49H144.339L142 194.1H140.694ZM148.241 194.263C147.652 194.263 147.117 194.127 146.636 193.855C146.156 193.574 145.775 193.175 145.494 192.658C145.213 192.142 145.072 191.525 145.072 190.809C145.072 190.083 145.213 189.462 145.494 188.946C145.784 188.429 146.156 188.03 146.609 187.749C147.062 187.468 147.538 187.327 148.037 187.327C148.88 187.327 149.528 187.608 149.982 188.17C150.444 188.733 150.675 189.485 150.675 190.428C150.675 190.546 150.671 190.664 150.662 190.782C150.662 190.89 150.653 190.986 150.635 191.067H146.174C146.219 191.765 146.437 192.323 146.827 192.74C147.226 193.157 147.742 193.366 148.377 193.366C148.694 193.366 148.984 193.32 149.247 193.23C149.519 193.13 149.778 193.003 150.023 192.849L150.417 193.583C150.136 193.765 149.814 193.923 149.451 194.059C149.098 194.195 148.694 194.263 148.241 194.263ZM146.16 190.265H149.696C149.696 189.594 149.551 189.086 149.261 188.742C148.98 188.388 148.581 188.211 148.064 188.211C147.602 188.211 147.185 188.393 146.813 188.755C146.45 189.109 146.233 189.612 146.16 190.265ZM154.566 194.263C153.741 194.263 153.079 193.964 152.581 193.366C152.082 192.758 151.833 191.906 151.833 190.809C151.833 190.093 151.964 189.476 152.227 188.959C152.499 188.433 152.853 188.03 153.288 187.749C153.732 187.468 154.204 187.327 154.702 187.327C155.083 187.327 155.414 187.395 155.695 187.531C155.976 187.667 156.262 187.853 156.552 188.089L156.497 186.96V184.417H157.626V194.1H156.701L156.606 193.325H156.565C156.312 193.579 156.012 193.801 155.668 193.991C155.323 194.173 154.956 194.263 154.566 194.263ZM154.811 193.325C155.391 193.325 155.953 193.021 156.497 192.414V188.959C156.216 188.705 155.944 188.529 155.681 188.429C155.428 188.32 155.165 188.266 154.893 188.266C154.539 188.266 154.217 188.374 153.927 188.592C153.646 188.801 153.419 189.095 153.247 189.476C153.075 189.848 152.989 190.287 152.989 190.795C152.989 191.584 153.147 192.205 153.465 192.658C153.782 193.103 154.231 193.325 154.811 193.325Z" fill="#9FA4B2"/>
<g clip-path="url(#clip0_370_423)">
<circle cx="80.3401" cy="53.3326" r="6.54864" fill="white"/>
<circle cx="61.0918" cy="53.1342" r="6.74708" fill="white"/>
<circle cx="41.4455" cy="53.3326" r="6.94553" fill="white"/>
<circle cx="41.4452" cy="73.177" r="6.15175" fill="white"/>
<circle cx="41.4456" cy="31.5037" r="6.54864" fill="white"/>
<circle cx="61.885" cy="31.7022" r="7.93774" fill="white"/>
<path d="M59.7027 9.67434L88.5008 9.67486C99.7558 9.67507 110.517 14.2951 118.269 22.4548V22.4548C132.786 37.7347 133.377 61.5238 119.637 77.5059L118.828 78.4479C110.766 87.8254 99.0145 93.2198 86.648 93.2198L59.7027 93.2198" stroke="white" stroke-width="13.8911" stroke-linecap="round"/>
<path d="M82.9107 28.6419L89.2569 28.6431C100.384 28.6453 109.755 36.9613 111.08 48.0094V48.0094C111.848 54.4082 109.769 60.8215 105.393 65.5532L105.051 65.9232C100.684 70.6464 94.5427 73.3319 88.1096 73.3319L59.3055 73.3319" stroke="#FF5C00" stroke-width="13.8911" stroke-linecap="round"/>
</g>
<path d="M1.49938 127.799V120.03H3.6919C4.48629 120.03 5.17344 120.165 5.75335 120.435C6.33326 120.705 6.78209 121.126 7.09985 121.698C7.42555 122.262 7.5884 122.989 7.5884 123.879C7.5884 124.768 7.42952 125.503 7.11176 126.083C6.794 126.663 6.34914 127.096 5.77718 127.382C5.21316 127.66 4.54985 127.799 3.78723 127.799H1.49938ZM3.25101 126.381H3.58466C4.02952 126.381 4.4148 126.302 4.7405 126.143C5.07415 125.984 5.33232 125.722 5.51503 125.356C5.69774 124.991 5.7891 124.498 5.7891 123.879C5.7891 123.259 5.69774 122.774 5.51503 122.425C5.33232 122.067 5.07415 121.817 4.7405 121.674C4.4148 121.523 4.02952 121.448 3.58466 121.448H3.25101V126.381ZM15.0211 127.799V120.03H16.8204L18.8461 123.891L19.6087 125.606H19.6564C19.6246 125.193 19.5809 124.733 19.5253 124.224C19.4697 123.716 19.4419 123.231 19.4419 122.77V120.03H21.1101V127.799H19.3108L17.2851 123.926L16.5225 122.234H16.4749C16.5146 122.663 16.5583 123.124 16.6059 123.616C16.6615 124.109 16.6893 124.586 16.6893 125.046V127.799H15.0211ZM32.1447 127.942C31.4933 127.942 30.8935 127.791 30.3454 127.489C29.7973 127.187 29.3564 126.742 29.0227 126.155C28.697 125.559 28.5342 124.828 28.5342 123.962C28.5342 123.104 28.701 122.373 29.0347 121.77C29.3763 121.158 29.8251 120.693 30.3812 120.375C30.9452 120.05 31.5529 119.887 32.2043 119.887C32.7048 119.887 33.1536 119.99 33.5508 120.197C33.948 120.395 34.2777 120.63 34.5398 120.9L33.6104 122.02C33.4118 121.837 33.2013 121.69 32.9788 121.579C32.7643 121.46 32.5181 121.4 32.24 121.4C31.8905 121.4 31.5688 121.499 31.2748 121.698C30.9889 121.897 30.7585 122.183 30.5837 122.556C30.4169 122.929 30.3335 123.378 30.3335 123.902C30.3335 124.697 30.5043 125.316 30.8459 125.761C31.1875 126.206 31.6442 126.429 32.2162 126.429C32.534 126.429 32.816 126.357 33.0622 126.214C33.3164 126.071 33.5389 125.9 33.7295 125.702L34.659 126.798C34.0076 127.561 33.1695 127.942 32.1447 127.942ZM53.3815 127.942C52.7301 127.942 52.1304 127.791 51.5822 127.489C51.0341 127.187 50.5932 126.742 50.2596 126.155C49.9339 125.559 49.771 124.828 49.771 123.962C49.771 123.104 49.9378 122.373 50.2715 121.77C50.6131 121.158 51.0619 120.693 51.618 120.375C52.182 120.05 52.7897 119.887 53.4411 119.887C53.9416 119.887 54.3904 119.99 54.7876 120.197C55.1848 120.395 55.5145 120.63 55.7766 120.9L54.8472 122.02C54.6486 121.837 54.4381 121.69 54.2156 121.579C54.0011 121.46 53.7549 121.4 53.4768 121.4C53.1273 121.4 52.8056 121.499 52.5117 121.698C52.2257 121.897 51.9953 122.183 51.8205 122.556C51.6537 122.929 51.5703 123.378 51.5703 123.902C51.5703 124.697 51.7411 125.316 52.0827 125.761C52.4243 126.206 52.8811 126.429 53.453 126.429C53.7708 126.429 54.0528 126.357 54.299 126.214C54.5532 126.071 54.7757 125.9 54.9663 125.702L55.8958 126.798C55.2444 127.561 54.4063 127.942 53.3815 127.942ZM65.7493 127.942C65.0502 127.942 64.4346 127.779 63.9023 127.453C63.378 127.128 62.9649 126.663 62.6631 126.059C62.3691 125.448 62.2222 124.721 62.2222 123.879C62.2222 123.029 62.3691 122.31 62.6631 121.722C62.9649 121.126 63.378 120.673 63.9023 120.363C64.4346 120.046 65.0502 119.887 65.7493 119.887C66.4483 119.887 67.06 120.046 67.5843 120.363C68.1166 120.673 68.5297 121.126 68.8236 121.722C69.1254 122.318 69.2764 123.037 69.2764 123.879C69.2764 124.721 69.1254 125.448 68.8236 126.059C68.5297 126.663 68.1166 127.128 67.5843 127.453C67.06 127.779 66.4483 127.942 65.7493 127.942ZM65.7493 126.429C66.2815 126.429 66.7025 126.198 67.0124 125.738C67.3222 125.277 67.4771 124.657 67.4771 123.879C67.4771 123.1 67.3222 122.492 67.0124 122.055C66.7025 121.619 66.2815 121.4 65.7493 121.4C65.217 121.4 64.796 121.619 64.4862 122.055C64.1764 122.492 64.0215 123.1 64.0215 123.879C64.0215 124.657 64.1764 125.277 64.4862 125.738C64.796 126.198 65.217 126.429 65.7493 126.429ZM76.6951 127.799V120.03H78.4944L80.5201 123.891L81.2828 125.606H81.3304C81.2986 125.193 81.2549 124.733 81.1993 124.224C81.1437 123.716 81.1159 123.231 81.1159 122.77V120.03H82.7842V127.799H80.9849L78.9592 123.926L78.1965 122.234H78.1489C78.1886 122.663 78.2323 123.124 78.2799 123.616C78.3356 124.109 78.3634 124.586 78.3634 125.046V127.799H76.6951ZM92.9489 127.942C92.4405 127.942 91.932 127.847 91.4236 127.656C90.9232 127.465 90.4743 127.187 90.0771 126.822L91.0781 125.618C91.3561 125.857 91.6659 126.051 92.0075 126.202C92.3491 126.353 92.6788 126.429 92.9965 126.429C93.362 126.429 93.632 126.361 93.8068 126.226C93.9895 126.091 94.0809 125.908 94.0809 125.678C94.0809 125.432 93.9776 125.253 93.7711 125.142C93.5725 125.023 93.3024 124.891 92.9608 124.748L91.9479 124.32C91.6858 124.208 91.4356 124.061 91.1972 123.879C90.9589 123.688 90.7643 123.454 90.6134 123.176C90.4624 122.898 90.387 122.572 90.387 122.198C90.387 121.77 90.5021 121.38 90.7325 121.031C90.9708 120.681 91.2965 120.403 91.7096 120.197C92.1306 119.99 92.6113 119.887 93.1514 119.887C93.5963 119.887 94.0412 119.974 94.486 120.149C94.9309 120.324 95.3201 120.578 95.6538 120.912L94.7601 122.02C94.5059 121.821 94.2517 121.67 93.9975 121.567C93.7433 121.456 93.4613 121.4 93.1514 121.4C92.8496 121.4 92.6073 121.464 92.4246 121.591C92.2498 121.71 92.1624 121.881 92.1624 122.103C92.1624 122.341 92.2736 122.52 92.4961 122.639C92.7264 122.759 93.0085 122.886 93.3421 123.021L94.343 123.426C94.8117 123.616 95.1851 123.879 95.4631 124.212C95.7412 124.546 95.8802 124.987 95.8802 125.535C95.8802 125.964 95.765 126.361 95.5346 126.727C95.3042 127.092 94.9706 127.386 94.5337 127.608C94.0968 127.831 93.5685 127.942 92.9489 127.942ZM106.219 127.942C105.21 127.942 104.44 127.644 103.907 127.048C103.375 126.452 103.109 125.503 103.109 124.2V120.03H104.873V124.379C104.873 125.142 104.988 125.674 105.218 125.976C105.449 126.278 105.782 126.429 106.219 126.429C106.656 126.429 106.994 126.278 107.232 125.976C107.47 125.674 107.589 125.142 107.589 124.379V120.03H109.282V124.2C109.282 125.503 109.019 126.452 108.495 127.048C107.979 127.644 107.22 127.942 106.219 127.942ZM117.039 127.799V120.03H118.791V126.321H121.865V127.799H117.039ZM129.247 127.799V121.507H127.114V120.03H133.143V121.507H131.01V127.799H129.247ZM140.312 127.799V120.03H142.064V127.799H140.312ZM149.854 127.799V120.03H151.654L153.679 123.891L154.442 125.606H154.49C154.458 125.193 154.414 124.733 154.359 124.224C154.303 123.716 154.275 123.231 154.275 122.77V120.03H155.943V127.799H154.144L152.118 123.926L151.356 122.234H151.308C151.348 122.663 151.392 123.124 151.439 123.616C151.495 124.109 151.523 124.586 151.523 125.046V127.799H149.854ZM167.169 127.942C166.462 127.942 165.818 127.791 165.238 127.489C164.666 127.187 164.21 126.742 163.868 126.155C163.534 125.559 163.368 124.828 163.368 123.962C163.368 123.104 163.538 122.373 163.88 121.77C164.229 121.158 164.69 120.693 165.262 120.375C165.834 120.05 166.466 119.887 167.157 119.887C167.721 119.887 168.205 119.99 168.611 120.197C169.016 120.403 169.345 120.638 169.6 120.9L168.682 122.02C168.483 121.845 168.273 121.698 168.051 121.579C167.828 121.46 167.55 121.4 167.216 121.4C166.613 121.4 166.12 121.623 165.739 122.067C165.358 122.512 165.167 123.124 165.167 123.902C165.167 124.697 165.35 125.316 165.715 125.761C166.08 126.206 166.625 126.429 167.347 126.429C167.506 126.429 167.661 126.409 167.812 126.369C167.963 126.329 168.086 126.27 168.182 126.19V124.856H166.895V123.426H169.731V127.001C169.461 127.263 169.099 127.485 168.646 127.668C168.201 127.851 167.709 127.942 167.169 127.942Z" fill="white"/>
<defs>
<clipPath id="clip0_370_423">
<rect width="102" height="102" fill="white" transform="translate(34.5 0.728027)"/>
</clipPath>
</defs>
</svg>
